<svg xmlns="http://www.w3.org/2000/svg" xmlns:xlink="http://www.w3.org/1999/xlink" width="520" zoomAndPan="magnify" viewBox="0 0 390 207.75" height="277" preserveAspectRatio="xMidYMid meet" version="1.0"><defs><g/><clipPath id="96c5556866"><path d="M 7.726562 2 L 382.273438 2 L 382.273438 164.507812 L 7.726562 164.507812 Z M 7.726562 2 " clip-rule="nonzero"/></clipPath></defs><g clip-path="url(#96c5556866)"><path fill="#004aad" d="M 214.492188 47.183594 L 214.492188 55.355469 C 214.492188 56.125 213.867188 56.753906 213.089844 56.753906 L 204.917969 56.753906 C 204.144531 56.753906 203.515625 56.125 203.515625 55.355469 L 203.515625 47.183594 C 203.515625 46.40625 204.144531 45.777344 204.917969 45.777344 L 213.089844 45.777344 C 213.867188 45.777344 214.492188 46.40625 214.492188 47.183594 Z M 199.589844 47.183594 L 199.589844 55.355469 C 199.589844 56.125 198.960938 56.753906 198.183594 56.753906 L 190.011719 56.753906 C 189.238281 56.753906 188.609375 56.125 188.609375 55.355469 L 188.609375 47.183594 C 188.609375 46.40625 189.238281 45.777344 190.011719 45.777344 L 198.183594 45.777344 C 198.960938 45.777344 199.589844 46.40625 199.589844 47.183594 Z M 214.492188 32.863281 L 214.492188 41.035156 C 214.492188 41.808594 213.867188 42.4375 213.089844 42.4375 L 204.917969 42.4375 C 204.144531 42.4375 203.515625 41.808594 203.515625 41.035156 L 203.515625 32.863281 C 203.515625 32.085938 204.144531 31.457031 204.917969 31.457031 L 213.089844 31.457031 C 213.867188 31.457031 214.492188 32.085938 214.492188 32.863281 Z M 199.589844 32.863281 L 199.589844 41.035156 C 199.589844 41.808594 198.960938 42.4375 198.183594 42.4375 L 190.011719 42.4375 C 189.238281 42.4375 188.609375 41.808594 188.609375 41.035156 L 188.609375 32.863281 C 188.609375 32.085938 189.238281 31.457031 190.011719 31.457031 L 198.183594 31.457031 C 198.960938 31.457031 199.589844 32.085938 199.589844 32.863281 Z M 367.179688 126 C 367.179688 134.214844 360.523438 140.871094 352.304688 140.871094 C 344.09375 140.871094 337.433594 134.214844 337.433594 126 C 337.433594 117.785156 344.09375 111.125 352.304688 111.125 C 360.523438 111.125 367.179688 117.785156 367.179688 126 Z M 352.304688 148.714844 C 339.78125 148.714844 329.589844 138.523438 329.589844 126 C 329.589844 113.472656 339.78125 103.285156 352.304688 103.285156 C 364.832031 103.285156 375.023438 113.472656 375.023438 126 C 375.023438 138.523438 364.832031 148.714844 352.304688 148.714844 Z M 352.304688 96.03125 C 337.113281 96.03125 324.535156 107.398438 322.605469 122.074219 L 289.742188 122.074219 C 278.683594 122.074219 269.691406 113.078125 269.691406 102.019531 L 269.691406 55.957031 C 269.691406 46.503906 264.96875 37.773438 257.054688 32.597656 L 217.402344 6.671875 C 207.886719 0.449219 195.6875 0.585938 186.320312 7.027344 L 149.097656 32.601562 C 141.519531 37.8125 136.996094 46.410156 136.996094 55.605469 L 136.996094 102.019531 C 136.996094 113.078125 128 122.074219 116.941406 122.074219 L 90.183594 122.074219 C 88.207031 102.539062 71.667969 87.246094 51.625 87.246094 L 11.359375 87.246094 C 9.355469 87.246094 7.730469 88.871094 7.730469 90.871094 L 7.726562 90.871094 L 7.726562 95.085938 C 7.726562 97.746094 9.882812 99.902344 12.542969 99.902344 L 18.363281 99.902344 C 21.023438 99.902344 23.179688 97.746094 23.179688 95.085938 L 23.179688 94.5 L 51.625 94.5 C 68.996094 94.5 83.125 108.628906 83.125 126 C 83.125 143.371094 68.996094 157.5 51.625 157.5 L 23.179688 157.5 L 23.179688 156.914062 C 23.179688 154.25 21.023438 152.097656 18.363281 152.097656 L 12.542969 152.097656 C 9.882812 152.097656 7.726562 154.25 7.726562 156.914062 L 7.726562 161.128906 L 7.730469 161.128906 C 7.730469 163.132812 9.355469 164.757812 11.359375 164.757812 L 51.625 164.757812 C 71.667969 164.757812 88.207031 149.460938 90.183594 129.925781 L 116.941406 129.925781 C 132.332031 129.925781 144.851562 117.410156 144.851562 102.019531 L 144.851562 55.605469 C 144.851562 48.996094 148.101562 42.816406 153.546875 39.078125 L 190.773438 13.503906 C 197.5 8.878906 206.265625 8.777344 213.101562 13.246094 L 252.753906 39.175781 C 258.441406 42.894531 261.835938 49.167969 261.835938 55.957031 L 261.835938 102.019531 C 261.835938 117.410156 274.355469 129.925781 289.742188 129.925781 L 322.605469 129.925781 C 324.535156 144.601562 337.113281 155.96875 352.304688 155.96875 C 368.832031 155.96875 382.273438 142.523438 382.273438 126 C 382.273438 109.476562 368.832031 96.03125 352.304688 96.03125 " fill-opacity="1" fill-rule="nonzero"/></g><g fill="#000000" fill-opacity="1"><g transform="translate(90.04543, 162.015332)"><g><path d="M 14.125 -24.6875 C 15.851562 -24.6875 17.539062 -24.351562 19.1875 -23.6875 C 20.84375 -23.019531 22.269531 -22.09375 23.46875 -20.90625 L 21.046875 -17.875 C 20.148438 -18.832031 19.09375 -19.59375 17.875 -20.15625 C 16.65625 -20.71875 15.425781 -21 14.1875 -21 C 11.726562 -21 9.648438 -20.160156 7.953125 -18.484375 C 6.253906 -16.816406 5.40625 -14.773438 5.40625 -12.359375 C 5.40625 -9.929688 6.253906 -7.878906 7.953125 -6.203125 C 9.648438 -4.523438 11.726562 -3.6875 14.1875 -3.6875 C 16.738281 -3.6875 19.023438 -4.660156 21.046875 -6.609375 L 23.5 -3.859375 C 22.238281 -2.617188 20.765625 -1.632812 19.078125 -0.90625 C 17.390625 -0.1875 15.691406 0.171875 13.984375 0.171875 C 10.378906 0.171875 7.34375 -1.023438 4.875 -3.421875 C 2.414062 -5.828125 1.1875 -8.796875 1.1875 -12.328125 C 1.1875 -15.816406 2.429688 -18.75 4.921875 -21.125 C 7.421875 -23.5 10.488281 -24.6875 14.125 -24.6875 Z M 14.125 -24.6875 "/></g></g></g><g fill="#000000" fill-opacity="1"><g transform="translate(115.672933, 162.015332)"><g><path d="M 19.109375 -5.546875 L 6.703125 -5.546875 L 4.359375 0 L 0.03125 0 L 10.890625 -24.59375 L 15.140625 -24.59375 L 25.890625 0 L 21.46875 0 Z M 17.53125 -9.234375 L 12.890625 -20.15625 L 8.25 -9.234375 Z M 17.53125 -9.234375 "/></g></g></g><g fill="#000000" fill-opacity="1"><g transform="translate(142.739761, 162.015332)"><g><path d="M 18.828125 0 L 14.328125 -7.453125 C 14.097656 -7.421875 13.722656 -7.40625 13.203125 -7.40625 L 7.375 -7.40625 L 7.375 0 L 3.234375 0 L 3.234375 -24.59375 L 13.203125 -24.59375 C 16.335938 -24.59375 18.769531 -23.859375 20.5 -22.390625 C 22.238281 -20.929688 23.109375 -18.863281 23.109375 -16.1875 C 23.109375 -14.21875 22.671875 -12.554688 21.796875 -11.203125 C 20.921875 -9.847656 19.660156 -8.851562 18.015625 -8.21875 L 23.53125 0 Z M 7.375 -11.140625 L 13.203125 -11.140625 C 17.179688 -11.140625 19.171875 -12.789062 19.171875 -16.09375 C 19.171875 -19.269531 17.179688 -20.859375 13.203125 -20.859375 L 7.375 -20.859375 Z M 7.375 -11.140625 "/></g></g></g><g fill="#000000" fill-opacity="1"><g transform="translate(169.279994, 162.015332)"><g><path d="M 18.828125 0 L 14.328125 -7.453125 C 14.097656 -7.421875 13.722656 -7.40625 13.203125 -7.40625 L 7.375 -7.40625 L 7.375 0 L 3.234375 0 L 3.234375 -24.59375 L 13.203125 -24.59375 C 16.335938 -24.59375 18.769531 -23.859375 20.5 -22.390625 C 22.238281 -20.929688 23.109375 -18.863281 23.109375 -16.1875 C 23.109375 -14.21875 22.671875 -12.554688 21.796875 -11.203125 C 20.921875 -9.847656 19.660156 -8.851562 18.015625 -8.21875 L 23.53125 0 Z M 7.375 -11.140625 L 13.203125 -11.140625 C 17.179688 -11.140625 19.171875 -12.789062 19.171875 -16.09375 C 19.171875 -19.269531 17.179688 -20.859375 13.203125 -20.859375 L 7.375 -20.859375 Z M 7.375 -11.140625 "/></g></g></g><g fill="#000000" fill-opacity="1"><g transform="translate(195.820232, 162.015332)"><g><path d="M 19.109375 -5.546875 L 6.703125 -5.546875 L 4.359375 0 L 0.03125 0 L 10.890625 -24.59375 L 15.140625 -24.59375 L 25.890625 0 L 21.46875 0 Z M 17.53125 -9.234375 L 12.890625 -20.15625 L 8.25 -9.234375 Z M 17.53125 -9.234375 "/></g></g></g><g fill="#000000" fill-opacity="1"><g transform="translate(222.887062, 162.015332)"><g><path d="M 11.3125 -24.765625 C 14.5 -24.765625 17.367188 -23.921875 19.921875 -22.234375 L 18.1875 -18.578125 C 15.6875 -20.097656 13.289062 -20.859375 11 -20.859375 C 9.75 -20.859375 8.765625 -20.632812 8.046875 -20.1875 C 7.335938 -19.75 6.984375 -19.117188 6.984375 -18.296875 C 6.984375 -17.484375 7.3125 -16.785156 7.96875 -16.203125 C 8.625 -15.628906 9.441406 -15.207031 10.421875 -14.9375 C 11.410156 -14.675781 12.476562 -14.335938 13.625 -13.921875 C 14.769531 -13.515625 15.832031 -13.082031 16.8125 -12.625 C 17.800781 -12.164062 18.617188 -11.453125 19.265625 -10.484375 C 19.910156 -9.515625 20.234375 -8.335938 20.234375 -6.953125 C 20.234375 -4.796875 19.367188 -3.070312 17.640625 -1.78125 C 15.921875 -0.5 13.691406 0.140625 10.953125 0.140625 C 9.085938 0.140625 7.273438 -0.207031 5.515625 -0.90625 C 3.753906 -1.613281 2.21875 -2.566406 0.90625 -3.765625 L 2.703125 -7.34375 C 3.941406 -6.195312 5.304688 -5.3125 6.796875 -4.6875 C 8.285156 -4.070312 9.695312 -3.765625 11.03125 -3.765625 C 12.476562 -3.765625 13.601562 -4.023438 14.40625 -4.546875 C 15.21875 -5.078125 15.625 -5.8125 15.625 -6.75 C 15.625 -7.59375 15.296875 -8.300781 14.640625 -8.875 C 13.984375 -9.445312 13.164062 -9.863281 12.1875 -10.125 C 11.207031 -10.394531 10.140625 -10.722656 8.984375 -11.109375 C 7.835938 -11.503906 6.773438 -11.914062 5.796875 -12.34375 C 4.816406 -12.78125 4 -13.476562 3.34375 -14.4375 C 2.6875 -15.394531 2.359375 -16.550781 2.359375 -17.90625 C 2.359375 -20 3.175781 -21.664062 4.8125 -22.90625 C 6.445312 -24.144531 8.613281 -24.765625 11.3125 -24.765625 Z M 11.3125 -24.765625 "/></g></g></g><g fill="#000000" fill-opacity="1"><g transform="translate(245.881681, 162.015332)"><g><path d="M 14.125 -24.6875 C 15.851562 -24.6875 17.539062 -24.351562 19.1875 -23.6875 C 20.84375 -23.019531 22.269531 -22.09375 23.46875 -20.90625 L 21.046875 -17.875 C 20.148438 -18.832031 19.09375 -19.59375 17.875 -20.15625 C 16.65625 -20.71875 15.425781 -21 14.1875 -21 C 11.726562 -21 9.648438 -20.160156 7.953125 -18.484375 C 6.253906 -16.816406 5.40625 -14.773438 5.40625 -12.359375 C 5.40625 -9.929688 6.253906 -7.878906 7.953125 -6.203125 C 9.648438 -4.523438 11.726562 -3.6875 14.1875 -3.6875 C 16.738281 -3.6875 19.023438 -4.660156 21.046875 -6.609375 L 23.5 -3.859375 C 22.238281 -2.617188 20.765625 -1.632812 19.078125 -0.90625 C 17.390625 -0.1875 15.691406 0.171875 13.984375 0.171875 C 10.378906 0.171875 7.34375 -1.023438 4.875 -3.421875 C 2.414062 -5.828125 1.1875 -8.796875 1.1875 -12.328125 C 1.1875 -15.816406 2.429688 -18.75 4.921875 -21.125 C 7.421875 -23.5 10.488281 -24.6875 14.125 -24.6875 Z M 14.125 -24.6875 "/></g></g></g><g fill="#000000" fill-opacity="1"><g transform="translate(271.509178, 162.015332)"><g><path d="M 4.953125 -21.125 C 7.460938 -23.5 10.550781 -24.6875 14.21875 -24.6875 C 17.894531 -24.6875 20.984375 -23.5 23.484375 -21.125 C 25.992188 -18.75 27.25 -15.804688 27.25 -12.296875 C 27.25 -8.785156 25.992188 -5.828125 23.484375 -3.421875 C 20.984375 -1.023438 17.894531 0.171875 14.21875 0.171875 C 10.550781 0.171875 7.460938 -1.023438 4.953125 -3.421875 C 2.441406 -5.828125 1.1875 -8.785156 1.1875 -12.296875 C 1.1875 -15.804688 2.441406 -18.75 4.953125 -21.125 Z M 14.265625 -20.96875 C 11.828125 -20.96875 9.738281 -20.128906 8 -18.453125 C 6.269531 -16.785156 5.40625 -14.734375 5.40625 -12.296875 C 5.40625 -9.859375 6.273438 -7.789062 8.015625 -6.09375 C 9.765625 -4.394531 11.84375 -3.546875 14.25 -3.546875 C 16.664062 -3.546875 18.726562 -4.394531 20.4375 -6.09375 C 22.144531 -7.789062 23 -9.859375 23 -12.296875 C 23 -14.734375 22.144531 -16.785156 20.4375 -18.453125 C 18.726562 -20.128906 16.671875 -20.96875 14.265625 -20.96875 Z M 14.265625 -20.96875 "/></g></g></g><g fill="#000000" fill-opacity="1"><g transform="translate(55.651854, 194.510062)"><g><path d="M 12.140625 -21.25 C 13.640625 -21.25 15.097656 -20.957031 16.515625 -20.375 C 17.929688 -19.800781 19.15625 -19.003906 20.1875 -17.984375 L 18.09375 -15.375 C 17.332031 -16.207031 16.425781 -16.863281 15.375 -17.34375 C 14.332031 -17.832031 13.273438 -18.078125 12.203125 -18.078125 C 10.085938 -18.078125 8.300781 -17.351562 6.84375 -15.90625 C 5.382812 -14.46875 4.65625 -12.710938 4.65625 -10.640625 C 4.65625 -8.546875 5.382812 -6.773438 6.84375 -5.328125 C 8.300781 -3.890625 10.085938 -3.171875 12.203125 -3.171875 C 14.398438 -3.171875 16.363281 -4.007812 18.09375 -5.6875 L 20.21875 -3.328125 C 19.125 -2.253906 17.851562 -1.40625 16.40625 -0.78125 C 14.957031 -0.15625 13.5 0.15625 12.03125 0.15625 C 8.925781 0.15625 6.316406 -0.875 4.203125 -2.9375 C 2.085938 -5.007812 1.03125 -7.566406 1.03125 -10.609375 C 1.03125 -13.609375 2.101562 -16.128906 4.25 -18.171875 C 6.394531 -20.222656 9.023438 -21.25 12.140625 -21.25 Z M 12.140625 -21.25 "/></g></g></g><g fill="#000000" fill-opacity="1"><g transform="translate(78.078836, 194.510062)"><g><path d="M 17.890625 -17.953125 L 6.34375 -17.953125 L 6.34375 -12.234375 L 16.6875 -12.234375 L 16.6875 -9.03125 L 6.34375 -9.03125 L 6.34375 -3.203125 L 18.25 -3.203125 L 18.25 0 L 2.78125 0 L 2.78125 -21.15625 L 17.890625 -21.15625 Z M 17.890625 -17.953125 "/></g></g></g><g fill="#000000" fill-opacity="1"><g transform="translate(99.266595, 194.510062)"><g><path d="M 21.125 0 L 17.625 0 L 6.34375 -15.171875 L 6.34375 0 L 2.78125 0 L 2.78125 -21.15625 L 6.28125 -21.15625 L 17.625 -5.953125 L 17.625 -21.15625 L 21.125 -21.15625 Z M 21.125 0 "/></g></g></g><g fill="#000000" fill-opacity="1"><g transform="translate(124.564963, 194.510062)"><g><path d="M 17.21875 -17.953125 L 10.515625 -17.953125 L 10.515625 0 L 6.953125 0 L 6.953125 -17.953125 L 0.265625 -17.953125 L 0.265625 -21.15625 L 17.21875 -21.15625 Z M 17.21875 -17.953125 "/></g></g></g><g fill="#000000" fill-opacity="1"><g transform="translate(143.425396, 194.510062)"><g><path d="M 16.203125 0 L 12.328125 -6.40625 C 12.128906 -6.382812 11.804688 -6.375 11.359375 -6.375 L 6.34375 -6.375 L 6.34375 0 L 2.78125 0 L 2.78125 -21.15625 L 11.359375 -21.15625 C 14.054688 -21.15625 16.148438 -20.523438 17.640625 -19.265625 C 19.140625 -18.003906 19.890625 -16.226562 19.890625 -13.9375 C 19.890625 -12.238281 19.507812 -10.804688 18.75 -9.640625 C 18 -8.472656 16.914062 -7.617188 15.5 -7.078125 L 20.25 0 Z M 6.34375 -9.578125 L 11.359375 -9.578125 C 14.785156 -9.578125 16.5 -11 16.5 -13.84375 C 16.5 -16.582031 14.785156 -17.953125 11.359375 -17.953125 L 6.34375 -17.953125 Z M 6.34375 -9.578125 "/></g></g></g><g fill="#000000" fill-opacity="1"><g transform="translate(166.63822, 194.510062)"><g><path d="M 4.265625 -18.171875 C 6.421875 -20.222656 9.078125 -21.25 12.234375 -21.25 C 15.398438 -21.25 18.0625 -20.222656 20.21875 -18.171875 C 22.375 -16.128906 23.453125 -13.597656 23.453125 -10.578125 C 23.453125 -7.554688 22.375 -5.007812 20.21875 -2.9375 C 18.0625 -0.875 15.398438 0.15625 12.234375 0.15625 C 9.078125 0.15625 6.421875 -0.875 4.265625 -2.9375 C 2.109375 -5.007812 1.03125 -7.554688 1.03125 -10.578125 C 1.03125 -13.597656 2.109375 -16.128906 4.265625 -18.171875 Z M 12.265625 -18.046875 C 10.171875 -18.046875 8.378906 -17.320312 6.890625 -15.875 C 5.398438 -14.4375 4.65625 -12.671875 4.65625 -10.578125 C 4.65625 -8.484375 5.40625 -6.703125 6.90625 -5.234375 C 8.40625 -3.773438 10.191406 -3.046875 12.265625 -3.046875 C 14.335938 -3.046875 16.109375 -3.773438 17.578125 -5.234375 C 19.054688 -6.703125 19.796875 -8.484375 19.796875 -10.578125 C 19.796875 -12.671875 19.054688 -14.4375 17.578125 -15.875 C 16.109375 -17.320312 14.335938 -18.046875 12.265625 -18.046875 Z M 12.265625 -18.046875 "/></g></g></g><g fill="#000000" fill-opacity="1"><g transform="translate(192.480625, 194.510062)"><g/></g></g><g fill="#000000" fill-opacity="1"><g transform="translate(201.638821, 194.510062)"><g><path d="M 25.140625 0 L 21.84375 0 L 21.8125 -15.796875 L 15.140625 -2.203125 L 12.8125 -2.203125 L 6.140625 -15.796875 L 6.140625 0 L 2.78125 0 L 2.78125 -21.15625 L 7.015625 -21.15625 L 13.984375 -7.09375 L 20.9375 -21.15625 L 25.140625 -21.15625 Z M 25.140625 0 "/></g></g></g><g fill="#000000" fill-opacity="1"><g transform="translate(230.957117, 194.510062)"><g><path d="M 15.140625 -26.40625 L 11.453125 -23.453125 L 8.375 -23.453125 L 11.578125 -27.921875 Z M 17.890625 -17.953125 L 6.34375 -17.953125 L 6.34375 -12.234375 L 16.6875 -12.234375 L 16.6875 -9.03125 L 6.34375 -9.03125 L 6.34375 -3.203125 L 18.25 -3.203125 L 18.25 0 L 2.78125 0 L 2.78125 -21.15625 L 17.890625 -21.15625 Z M 17.890625 -17.953125 "/></g></g></g><g fill="#000000" fill-opacity="1"><g transform="translate(252.144874, 194.510062)"><g><path d="M 2.78125 -21.15625 L 11.453125 -21.15625 C 14.617188 -21.15625 17.234375 -20.15625 19.296875 -18.15625 C 21.359375 -16.164062 22.390625 -13.640625 22.390625 -10.578125 C 22.390625 -7.515625 21.351562 -4.984375 19.28125 -2.984375 C 17.207031 -0.992188 14.566406 0 11.359375 0 L 2.78125 0 Z M 6.34375 -17.953125 L 6.34375 -3.203125 L 11.546875 -3.203125 C 13.617188 -3.203125 15.34375 -3.890625 16.71875 -5.265625 C 18.101562 -6.648438 18.796875 -8.410156 18.796875 -10.546875 C 18.796875 -12.679688 18.082031 -14.445312 16.65625 -15.84375 C 15.238281 -17.25 13.484375 -17.953125 11.390625 -17.953125 Z M 6.34375 -17.953125 "/></g></g></g><g fill="#000000" fill-opacity="1"><g transform="translate(276.929405, 194.510062)"><g><path d="M 6.34375 0 L 2.78125 0 L 2.78125 -21.15625 L 6.34375 -21.15625 Z M 6.34375 0 "/></g></g></g><g fill="#000000" fill-opacity="1"><g transform="translate(287.417506, 194.510062)"><g><path d="M 12.140625 -21.25 C 13.640625 -21.25 15.097656 -20.957031 16.515625 -20.375 C 17.929688 -19.800781 19.15625 -19.003906 20.1875 -17.984375 L 18.09375 -15.375 C 17.332031 -16.207031 16.425781 -16.863281 15.375 -17.34375 C 14.332031 -17.832031 13.273438 -18.078125 12.203125 -18.078125 C 10.085938 -18.078125 8.300781 -17.351562 6.84375 -15.90625 C 5.382812 -14.46875 4.65625 -12.710938 4.65625 -10.640625 C 4.65625 -8.546875 5.382812 -6.773438 6.84375 -5.328125 C 8.300781 -3.890625 10.085938 -3.171875 12.203125 -3.171875 C 14.398438 -3.171875 16.363281 -4.007812 18.09375 -5.6875 L 20.21875 -3.328125 C 19.125 -2.253906 17.851562 -1.40625 16.40625 -0.78125 C 14.957031 -0.15625 13.5 0.15625 12.03125 0.15625 C 8.925781 0.15625 6.316406 -0.875 4.203125 -2.9375 C 2.085938 -5.007812 1.03125 -7.566406 1.03125 -10.609375 C 1.03125 -13.609375 2.101562 -16.128906 4.25 -18.171875 C 6.394531 -20.222656 9.023438 -21.25 12.140625 -21.25 Z M 12.140625 -21.25 "/></g></g></g><g fill="#000000" fill-opacity="1"><g transform="translate(309.844485, 194.510062)"><g><path d="M 4.265625 -18.171875 C 6.421875 -20.222656 9.078125 -21.25 12.234375 -21.25 C 15.398438 -21.25 18.0625 -20.222656 20.21875 -18.171875 C 22.375 -16.128906 23.453125 -13.597656 23.453125 -10.578125 C 23.453125 -7.554688 22.375 -5.007812 20.21875 -2.9375 C 18.0625 -0.875 15.398438 0.15625 12.234375 0.15625 C 9.078125 0.15625 6.421875 -0.875 4.265625 -2.9375 C 2.109375 -5.007812 1.03125 -7.554688 1.03125 -10.578125 C 1.03125 -13.597656 2.109375 -16.128906 4.265625 -18.171875 Z M 12.265625 -18.046875 C 10.171875 -18.046875 8.378906 -17.320312 6.890625 -15.875 C 5.398438 -14.4375 4.65625 -12.671875 4.65625 -10.578125 C 4.65625 -8.484375 5.40625 -6.703125 6.90625 -5.234375 C 8.40625 -3.773438 10.191406 -3.046875 12.265625 -3.046875 C 14.335938 -3.046875 16.109375 -3.773438 17.578125 -5.234375 C 19.054688 -6.703125 19.796875 -8.484375 19.796875 -10.578125 C 19.796875 -12.671875 19.054688 -14.4375 17.578125 -15.875 C 16.109375 -17.320312 14.335938 -18.046875 12.265625 -18.046875 Z M 12.265625 -18.046875 "/></g></g></g></svg>